<?xml version="1.0" standalone="no"?>
<!DOCTYPE svg PUBLIC "-//W3C//DTD SVG 20010904//EN"
 "http://www.w3.org/TR/2001/REC-SVG-20010904/DTD/svg10.dtd">
<svg version="1.0" xmlns="http://www.w3.org/2000/svg"
 width="700.000000pt" height="700.000000pt" viewBox="0 0 700.000000 700.000000"
 preserveAspectRatio="xMidYMid meet">
<metadata>
Created by potrace 1.14, written by Peter Selinger 2001-2017
</metadata>
<g transform="translate(0.000000,700.000000) scale(0.100000,-0.100000)"
fill="#000000" stroke="none">
<path d="M3278 6995 c-1 -1 -41 -6 -88 -9 -96 -7 -96 -8 -325 -42 -16 -3 -37
-7 -45 -9 -8 -2 -26 -6 -40 -9 -139 -25 -398 -104 -585 -178 -110 -44 -352
-161 -430 -208 -27 -17 -58 -33 -67 -36 -10 -4 -18 -10 -18 -15 0 -5 -5 -9
-11 -9 -15 0 -206 -131 -323 -223 -483 -375 -868 -888 -1096 -1458 -66 -165
-142 -408 -165 -530 -3 -13 -12 -58 -20 -99 -8 -41 -17 -89 -19 -105 -3 -17
-7 -46 -11 -66 -6 -40 -10 -74 -22 -199 -15 -159 -8 -605 12 -708 1 -9 6 -44
9 -77 4 -33 9 -67 11 -75 3 -8 7 -31 9 -50 10 -76 60 -282 103 -420 134 -435
337 -814 627 -1175 89 -110 83 -104 212 -236 111 -114 167 -166 259 -243 90
-74 90 -74 160 -126 33 -25 62 -48 63 -52 2 -5 8 -8 13 -8 4 0 49 -27 98 -60
181 -121 458 -262 661 -338 265 -99 558 -174 775 -197 28 -3 55 -8 62 -10 79
-27 662 -26 843 1 605 90 1058 260 1530 576 650 436 1142 1096 1379 1853 33
107 72 252 86 325 20 104 36 195 40 240 4 30 8 61 11 69 18 56 26 543 11 716
-8 88 -23 211 -33 257 -2 13 -7 39 -10 58 -13 79 -46 222 -75 320 -17 58 -34
119 -38 135 -27 102 -138 369 -224 534 -448 870 -1255 1519 -2202 1771 -115
31 -265 63 -350 76 -27 4 -52 8 -55 9 -3 1 -39 5 -80 9 -41 4 -88 10 -105 13
-33 5 -531 13 -537 8z m537 -388 c17 -3 57 -8 90 -12 32 -4 68 -9 80 -11 11
-2 36 -7 55 -10 79 -12 265 -56 374 -89 393 -119 790 -336 1113 -609 98 -84
314 -306 401 -414 245 -305 438 -669 554 -1042 11 -36 22 -72 23 -80 2 -8 4
-15 5 -15 1 0 3 -7 5 -15 1 -8 8 -33 13 -55 18 -67 56 -263 66 -345 29 -222
29 -593 1 -815 -4 -34 -17 -115 -21 -130 -1 -5 -5 -28 -8 -50 -13 -79 -91
-377 -112 -425 -4 -8 -8 -20 -9 -26 -2 -6 -20 -53 -40 -105 -220 -550 -571
-1009 -1040 -1361 -200 -150 -379 -253 -645 -371 -258 -115 -616 -205 -920
-232 -36 -4 -78 -8 -95 -10 -72 -10 -430 -4 -520 9 -16 2 -55 7 -85 11 -30 3
-77 10 -105 15 -27 5 -63 12 -80 15 -75 13 -95 17 -170 36 -433 108 -844 312
-1200 595 -213 169 -472 449 -622 674 -97 146 -122 187 -191 320 -79 151 -143
301 -197 465 -40 122 -99 353 -109 430 -4 28 -9 59 -11 70 -2 11 -7 43 -11 70
-3 28 -8 64 -11 80 -9 58 -11 550 -3 610 5 33 11 83 14 110 16 140 26 192 67
360 40 157 61 222 126 390 425 1085 1442 1853 2598 1961 39 4 72 8 74 10 5 5
512 -3 546 -9z"/>
<path d="M3014 4397 c-23 -18 -59 -46 -79 -63 -21 -16 -63 -49 -95 -74 -31
-25 -74 -58 -95 -75 -21 -16 -75 -59 -120 -95 -278 -219 -338 -265 -345 -268
-4 -1 -13 11 -20 29 -23 54 -85 142 -141 200 -115 119 -279 202 -441 224 -52
7 -770 6 -777 0 -11 -12 -7 -1494 4 -1498 5 -2 179 -3 385 -1 306 1 389 5 450
18 134 29 289 116 381 213 44 45 129 162 129 177 0 4 7 17 16 31 15 23 16 23
37 5 28 -24 683 -538 754 -592 11 -9 33 7 203 142 19 15 112 88 205 161 94 74
177 139 185 146 8 7 74 58 145 114 l130 101 3 -259 2 -259 525 0 525 0 -2 220
-3 221 -259 0 -260 0 0 528 c-1 387 -4 530 -13 535 -6 4 -124 6 -262 4 l-251
-3 0 -262 -1 -262 -180 -140 c-100 -77 -186 -145 -193 -151 -6 -5 -54 -43
-106 -84 -52 -41 -128 -100 -168 -132 -43 -34 -78 -55 -85 -51 -9 5 -99 76
-125 98 -3 3 64 57 513 410 17 13 68 54 115 91 47 36 86 67 88 69 5 4 -278
225 -289 225 -9 0 -72 -47 -179 -133 -8 -7 -98 -77 -200 -157 -102 -80 -192
-150 -200 -157 -105 -85 -144 -112 -154 -106 -37 22 -125 97 -121 104 3 4 130
106 283 226 420 330 424 333 420 343 -5 13 -271 220 -283 220 -5 0 -29 -15
-51 -33z m-1342 -580 c114 -56 172 -157 171 -297 0 -121 -52 -215 -147 -269
-71 -40 -111 -46 -273 -42 l-23 1 0 320 0 321 108 -3 c94 -3 114 -7 164 -31z"/>
<path d="M5120 4225 c0 -30 -1 -345 -1 -700 0 -355 1 -669 1 -698 l0 -52 523
0 522 0 3 216 c2 200 1 217 -15 221 -10 2 -127 3 -260 3 -157 0 -243 3 -244
10 -1 5 -2 244 -3 530 l-1 520 -262 3 -263 2 0 -55z"/>
</g>
</svg>
