<svg xmlns="http://www.w3.org/2000/svg" width="29.99" height="29.99" viewBox="0 0 29.99 29.99"><path d="M24.473,20.332a3.871,3.871,0,0,0-.064-.424,15.111,15.111,0,0,0-2.217-5.3l0-.007c-.01-.017-.02-.035-.032-.052A15.331,15.331,0,0,0,14.8,8.746l.005,0,.081-.071.046-.042.051-.047.073-.067.045-.044.044-.043.076-.074.047-.048.048-.049.067-.069.048-.052.047-.051.06-.066.05-.057.045-.052.057-.065.046-.055.044-.053.057-.07.046-.059.043-.056.053-.068.044-.061.04-.055L16.12,7.3l.043-.062.039-.057.049-.072.041-.062.039-.06.047-.072.039-.063.037-.061.045-.075.036-.062.034-.061.045-.079.034-.063.03-.056.046-.087.033-.067.029-.059.041-.083.03-.066.028-.061.039-.086.025-.058.024-.057c.014-.034.029-.067.043-.1l.022-.055.022-.056c.014-.036.028-.071.041-.107l.021-.058.023-.064c.012-.034.024-.067.036-.1l.019-.057.017-.054c.013-.038.025-.076.037-.115l.015-.049.017-.056c.012-.041.024-.081.035-.122l.012-.047.012-.046c.012-.046.024-.092.036-.138l.01-.044.01-.045c.011-.048.023-.1.033-.144,0-.02.008-.04.012-.061l.013-.066c.007-.036.015-.072.021-.109,0-.017.006-.035.009-.052l.009-.054c.008-.044.015-.088.022-.13l0-.028V3.8c.01-.067.019-.135.028-.2h0v0A8.114,8.114,0,1,0,1.382,2.614a8.169,8.169,0,0,0,.058.97v.01c.008.068.018.135.028.2l.005.037c.007.044.014.088.022.133l.009.054c0,.017.006.034.009.051.007.037.014.074.022.111l.013.065c0,.02.008.04.012.06.01.049.022.1.033.147L1.6,4.5l.01.044c.011.046.023.091.035.136l.012.047.012.047c.011.041.023.081.035.122l.016.056L1.739,5c.011.037.024.074.036.111l.019.058.018.056c.012.035.024.069.037.1l.022.061.021.058c.013.035.027.07.04.1l.024.06.021.055c.014.034.028.068.043.1l.024.058.024.057.039.085.028.062.031.066.04.082.03.062.033.066.045.085.031.059.033.061.044.079.035.062.035.062.046.076.036.059.039.063.047.072.038.059L2.74,7.1l.049.072.04.058.042.061.052.071.041.056.044.06.054.07.043.055.045.057.057.069.044.054.046.056.056.065.046.053.049.057.061.066.047.051.049.053.068.07.046.047.047.048.074.072.047.046.044.043.075.069.049.045.046.042.084.073,0,0a15.331,15.331,0,0,0-7.354,5.808c-.011.017-.022.034-.032.052l0,.007a15.112,15.112,0,0,0-2.217,5.3,3.843,3.843,0,0,0-.081.848,3.771,3.771,0,0,0,.305,1.429,3.819,3.819,0,0,0,.548.906A3.776,3.776,0,0,0-1.7,24.49h22.4a3.776,3.776,0,0,0,2.942-1.4,3.818,3.818,0,0,0,.548-.906,3.77,3.77,0,0,0,.305-1.429A3.829,3.829,0,0,0,24.473,20.332ZM10.409,7.723l-.02,0-.1.016-.028,0-.071.01-.055.007-.077.009-.049.005-.074.007-.053,0-.057,0-.062,0-.272,0-.272,0-.062,0-.056,0-.054,0-.073-.006L8.93,7.772l-.078-.009L8.8,7.756l-.071-.01-.027,0-.1-.016-.021,0a5.189,5.189,0,1,1,1.827,0ZM1.148,14a12.289,12.289,0,0,1,6.73-3.169l.016,0c.213-.028.437-.051.667-.069l.188-.013.13-.007c.1,0,.2-.009.3-.012h.017c.2.008.407.008.609,0h.017c.1,0,.2.007.3.012l.131.007.187.013c.23.018.454.041.667.069l.015,0A12.29,12.29,0,0,1,17.843,14a12.187,12.187,0,0,1,3.7,6.509.885.885,0,0,1-.18.742l-.011.013a.844.844,0,0,1-.58.3c-.031,0-.056,0-.081,0H-1.7c-.024,0-.05,0-.081,0a.843.843,0,0,1-.58-.3l-.012-.014a.884.884,0,0,1-.179-.741A12.187,12.187,0,0,1,1.148,14Z" transform="translate(5.499 5.5)" fill="#909090"/></svg>