<svg xmlns="http://www.w3.org/2000/svg" width="44" height="35.51" viewBox="0 0 44 35.51"><g transform="translate(-1746 -40)"><g transform="translate(1746 45)"><path d="M31.484,26.893H5.813l-.382-4.31a1.356,1.356,0,0,0-1.343-1.245H1.348a1.367,1.367,0,0,0,0,2.734H2.855c.823,9.3-1.3-14.74,1.551,17.518a5.28,5.28,0,0,0,1.942,3.564,4.153,4.153,0,0,0,3.219,6.695,4.141,4.141,0,0,0,3.844-5.555h7.38a4.081,4.081,0,1,0,3.844-2.734H9.576a2.5,2.5,0,0,1-2.3-1.539l21.549-1.284A1.353,1.353,0,0,0,30.053,39.7l2.74-11.111a1.364,1.364,0,0,0-1.308-1.7ZM9.567,49.114A1.411,1.411,0,1,1,10.959,47.7,1.4,1.4,0,0,1,9.567,49.114Zm15.068,0A1.411,1.411,0,1,1,26.027,47.7,1.4,1.4,0,0,1,24.635,49.114Zm3.041-11.049L6.911,39.3l-.857-9.675h23.7Z" transform="translate(0 -21.338)"/></g><g transform="translate(-14 11)"><circle cx="9.5" cy="9.5" r="9.5" transform="translate(1785 29)" fill="#de2f09"/><text transform="translate(1795 43)" fill="#fff" font-size="12" font-family="Montserrat-Bold, Montserrat" font-weight="700"><tspan x="-2.352" y="0">1</tspan></text></g></g></svg>