<svg xmlns="http://www.w3.org/2000/svg" width="20.341" height="17.878" viewBox="0 0 20.341 17.878"><path d="M19.749,2.384H14.342v-.6A1.79,1.79,0,0,0,12.554,0H7.787A1.79,1.79,0,0,0,6,1.788v.6H.6a.6.6,0,0,0-.6.6V16.09a1.79,1.79,0,0,0,1.788,1.788H18.553a1.79,1.79,0,0,0,1.788-1.788V2.99A.579.579,0,0,0,19.749,2.384Zm-12.558-.6a.6.6,0,0,1,.6-.6h4.767a.6.6,0,0,1,.6.6v.6H7.191ZM18.918,3.576,17.067,9.127a.6.6,0,0,1-.565.408H13.15v-.6a.6.6,0,0,0-.6-.6H7.787a.6.6,0,0,0-.6.6v.6H3.839a.6.6,0,0,1-.565-.408L1.423,3.576Zm-6.96,5.959v1.192H8.383V9.535Zm7.191,6.555a.6.6,0,0,1-.6.6H1.788a.6.6,0,0,1-.6-.6V6.652L2.143,9.5a1.785,1.785,0,0,0,1.7,1.222H7.191v.6a.6.6,0,0,0,.6.6h4.767a.6.6,0,0,0,.6-.6v-.6H16.5A1.785,1.785,0,0,0,18.2,9.5l.951-2.852Zm0,0" fill="#fff"/></svg>