<svg xmlns="http://www.w3.org/2000/svg" width="19.075" height="18.096" viewBox="0 0 19.075 18.096"><path d="M16.6,81.116H15.281l.07-1.462a.606.606,0,0,0-.606-.635H1.405a.606.606,0,0,0-.606.635L1.069,85.3a3.577,3.577,0,0,0,2.123,3.1H.606a.606.606,0,0,0,0,1.213H15.629a.606.606,0,0,0,0-1.213h-2.67a3.58,3.58,0,0,0,2-2.338H16.6a2.476,2.476,0,0,0,0-4.952ZM11.5,87.5H4.647A2.367,2.367,0,0,1,2.28,85.244l-.239-5.013H14.109l-.239,5.013A2.367,2.367,0,0,1,11.5,87.5Zm5.1-2.646H15.1l.12-2.528H16.6a1.263,1.263,0,0,1,0,2.527Z" transform="translate(0 -71.523)" fill="black"/><path d="M51.108,11.349a.606.606,0,0,0,.617-1.044A1.4,1.4,0,0,1,51.086,9.3a1.5,1.5,0,0,1,.321-1.225l.007-.008.2-.228a4.661,4.661,0,0,0,1.308-2.279.606.606,0,1,0-1.2-.206A3.641,3.641,0,0,1,50.7,7.038l-.2.231a2.727,2.727,0,0,0-.609,2.214A2.605,2.605,0,0,0,51.108,11.349Z" transform="translate(-44.815 -4.846)" fill="black"/><path d="M79.376,9.979a3.116,3.116,0,0,0,1.006,1.33.606.606,0,1,0,.735-.964,1.914,1.914,0,0,1-.61-.8c-.236-.609-.012-1.215.749-2.028a3.753,3.753,0,0,0,1-1.964.606.606,0,0,0-1.2-.191,2.514,2.514,0,0,1-.685,1.326C79.972,7.108,78.762,8.4,79.376,9.979Z" transform="translate(-71.2 -4.846)" fill="black"/></svg>