<svg xmlns="http://www.w3.org/2000/svg" width="24.543" height="16.119" viewBox="0 0 24.543 16.119"><g transform="translate(0 0)"><g transform="translate(0 0)"><path d="M24.53,66.257a22.909,22.909,0,0,0-.673-4.432A17.012,17.012,0,0,0,22.482,58.1c-2.14-3.76-4.463-3.179-7.245-2.445a19.912,19.912,0,0,1-2.812.55h-.306a19.912,19.912,0,0,1-2.812-.55c-2.782-.7-5.1-1.314-7.245,2.476A15.584,15.584,0,0,0,.686,61.855a22.909,22.909,0,0,0-.673,4.432,8.329,8.329,0,0,0,.428,3.485,2.317,2.317,0,0,0,1.467,1.376,2.989,2.989,0,0,0,1.956-.214,14.368,14.368,0,0,0,3.913-2.782,6.749,6.749,0,0,1,4.494-1.376,6.749,6.749,0,0,1,4.494,1.376,14.368,14.368,0,0,0,3.913,2.782,3.2,3.2,0,0,0,1.956.214A2.284,2.284,0,0,0,24.1,69.742,8.173,8.173,0,0,0,24.53,66.257Zm-1.467,3.057a1.212,1.212,0,0,1-.734.764,2.111,2.111,0,0,1-1.253-.153,12.467,12.467,0,0,1-3.546-2.537,7.633,7.633,0,0,0-5.258-1.742,8.061,8.061,0,0,0-5.288,1.681,12.7,12.7,0,0,1-3.546,2.537,1.9,1.9,0,0,1-1.253.153,1.212,1.212,0,0,1-.734-.764,7.228,7.228,0,0,1-.306-2.935A21.086,21.086,0,0,1,1.787,62.1,14.586,14.586,0,0,1,3.07,58.646c1.681-3.026,3.638-2.537,5.961-1.926a17.932,17.932,0,0,0,3,.581h.459a17.71,17.71,0,0,0,3.026-.581c2.323-.581,4.28-1.1,5.961,1.926A14.1,14.1,0,0,1,22.757,62.1a23.137,23.137,0,0,1,.642,4.218A7.073,7.073,0,0,1,23.062,69.314Z" transform="translate(0 -55.109)" fill="black"/></g></g><g transform="translate(3.162 3.047)"><g transform="translate(0 0)"><path d="M47.67,97.121a1.857,1.857,0,0,0-1.1-.52,1.739,1.739,0,0,0-.489-1.07L46.05,95.5a1.731,1.731,0,0,0-1.253-.52,1.8,1.8,0,0,0-1.253.52,1.777,1.777,0,0,0-.52,1.1,1.821,1.821,0,0,0-1.1.489l-.031.031a1.731,1.731,0,0,0-.52,1.253,1.8,1.8,0,0,0,.52,1.253,1.7,1.7,0,0,0,1.131.52,1.631,1.631,0,0,0,.52,1.1,1.731,1.731,0,0,0,1.253.52,1.8,1.8,0,0,0,1.253-.52,1.858,1.858,0,0,0,.52-1.1,1.631,1.631,0,0,0,1.1-.52,1.731,1.731,0,0,0,.52-1.253A1.8,1.8,0,0,0,47.67,97.121Zm-.764,1.712a.622.622,0,0,1-.459.183h-.428a.58.58,0,0,0-.581.581v.4a.642.642,0,1,1-1.284,0v-.428a.58.58,0,0,0-.581-.581h-.428a.627.627,0,0,1-.459-1.07l.031-.031a.73.73,0,0,1,.428-.153h.428a.58.58,0,0,0,.581-.581v-.428a.649.649,0,0,1,1.1-.459l.031.031a.73.73,0,0,1,.153.428v.428a.58.58,0,0,0,.581.581h.428a.649.649,0,0,1,.459,1.1Z" transform="translate(-41.373 -94.981)" fill="black"/></g></g><g transform="translate(16.52 3.2)"><g transform="translate(0 0)"><ellipse cx="1.07" cy="1.07" rx="1.07" ry="1.07" fill="black"/></g></g><g transform="translate(16.52 7.541)"><ellipse cx="1.07" cy="1.07" rx="1.07" ry="1.07" fill="black"/></g><g transform="translate(14.35 5.37)"><g transform="translate(0 0)"><ellipse cx="1.07" cy="1.07" rx="1.07" ry="1.07" fill="black"/></g></g><g transform="translate(18.691 5.37)"><g transform="translate(0 0)"><ellipse cx="1.07" cy="1.07" rx="1.07" ry="1.07" fill="black"/></g></g></svg>