<svg xmlns="http://www.w3.org/2000/svg" width="66.35" height="66.35" viewBox="0 0 66.35 66.35"><g transform="translate(-266.558 -174.602)"><path d="M299.73,174.6a33.175,33.175,0,1,1-33.172,33.174A33.177,33.177,0,0,1,299.73,174.6m0,3.587a29.591,29.591,0,1,0,20.922,8.666,29.5,29.5,0,0,0-20.922-8.666" fill="#0070bd"/><path d="M320.062,210.48h4.959v4.173H315.08V200.381h4.982Zm-16.246-.786-8.191,6.441-7.488-5.888a7.232,7.232,0,0,1-6.7,4.4h-6.4v-14.27h6.4a7.155,7.155,0,0,1,6.691,4.406l7.493-5.889,2.777,2.184-6.861,5.4,1.314,1.034,6.864-5.4,2.775,2.181-6.863,5.4,1.317,1.035,6.868-5.394v-4.954H308.8v10.1h4.959v4.176h-9.942Zm-19.78-2.179a2.856,2.856,0,0,0-3.093-3.035h-1.111v6.071h1.082a2.851,2.851,0,0,0,3.122-3.036" fill="#0070bd"/></g></svg>