<svg xmlns="http://www.w3.org/2000/svg" width="40.043" height="40.043" viewBox="0 0 40.043 40.043"><path d="M35.69,0H4.352A4.358,4.358,0,0,0,0,4.352V35.69a4.358,4.358,0,0,0,4.352,4.352H35.69a4.358,4.358,0,0,0,4.352-4.352V4.352A4.358,4.358,0,0,0,35.69,0ZM18.28,26.115H12.187V20.892H18.28a.871.871,0,0,0,.87-.87V14.8A6.1,6.1,0,0,1,25.244,8.7h6.093v5.223H25.244a.87.87,0,0,0-.871.87v5.223a.87.87,0,0,0,.871.87h6.093v5.223H25.244a.87.87,0,0,0-.871.87V38.3H19.151V26.985A.871.871,0,0,0,18.28,26.115ZM38.3,35.69A2.615,2.615,0,0,1,35.69,38.3H26.115V27.856h6.093a.87.87,0,0,0,.87-.871V20.021a.87.87,0,0,0-.87-.871H26.115V15.669h6.093a.87.87,0,0,0,.87-.87V7.834a.87.87,0,0,0-.87-.87H25.244A7.844,7.844,0,0,0,17.41,14.8v4.352H11.316a.871.871,0,0,0-.87.871v6.964a.871.871,0,0,0,.87.871H17.41V38.3H4.352A2.615,2.615,0,0,1,1.741,35.69V4.352A2.615,2.615,0,0,1,4.352,1.741H35.69A2.615,2.615,0,0,1,38.3,4.352Zm0,0" fill="#fff"/></svg>