<svg xmlns="http://www.w3.org/2000/svg" width="60.567" height="79" viewBox="0 0 60.567 79"><g transform="translate(-9 -2)"><path d="M65.617,2H12.95A3.95,3.95,0,0,0,9,5.95v71.1A3.95,3.95,0,0,0,12.95,81H65.617a3.95,3.95,0,0,0,3.95-3.95V5.95A3.95,3.95,0,0,0,65.617,2Zm1.317,75.05a1.317,1.317,0,0,1-1.317,1.317H12.95a1.317,1.317,0,0,1-1.317-1.317V5.95A1.317,1.317,0,0,1,12.95,4.633H65.617A1.317,1.317,0,0,1,66.933,5.95Z" fill="#0070bd"/><path d="M15.95,12.9A3.95,3.95,0,1,0,12,8.95a3.95,3.95,0,0,0,3.95,3.95Zm0-5.267A1.317,1.317,0,1,1,14.633,8.95,1.317,1.317,0,0,1,15.95,7.633Z" transform="translate(0.95 0.95)" fill="#0070bd"/><path d="M49.95,5A3.95,3.95,0,1,0,53.9,8.95,3.95,3.95,0,0,0,49.95,5Zm0,5.267A1.317,1.317,0,1,1,51.267,8.95,1.317,1.317,0,0,1,49.95,10.267Z" transform="translate(11.717 0.95)" fill="#0070bd"/><path d="M15.95,53a3.95,3.95,0,1,0,3.95,3.95A3.95,3.95,0,0,0,15.95,53Zm0,5.267a1.317,1.317,0,1,1,1.317-1.317A1.317,1.317,0,0,1,15.95,58.267Z" transform="translate(0.95 16.15)" fill="#0070bd"/><path d="M49.95,53a3.95,3.95,0,1,0,3.95,3.95A3.95,3.95,0,0,0,49.95,53Zm0,5.267a1.317,1.317,0,1,1,1.317-1.317A1.317,1.317,0,0,1,49.95,58.267Z" transform="translate(11.717 16.15)" fill="#0070bd"/><path d="M32.317,12a1.317,1.317,0,0,0,0,2.633A14.5,14.5,0,0,1,46.8,29.117a1.317,1.317,0,1,0,2.633,0A17.136,17.136,0,0,0,32.317,12Z" transform="translate(6.967 3.167)" fill="#0070bd"/><path d="M21,59.167H49.967V46H21Zm2.633-10.533h23.7v7.9h-23.7Z" transform="translate(3.8 13.933)" fill="#0070bd"/><path d="M33.267,21a5.267,5.267,0,1,0,5.267,5.267A5.267,5.267,0,0,0,33.267,21Zm0,7.9A2.633,2.633,0,1,1,35.9,26.267,2.633,2.633,0,0,1,33.267,28.9Z" transform="translate(6.017 6.017)" fill="#0070bd"/><path d="M37.384,8A22.364,22.364,0,0,0,21.576,46.2l-5.82,2.739A1.317,1.317,0,0,0,15,50.133v3.95A1.317,1.317,0,0,0,16.317,55.4h7.9a1.316,1.316,0,0,0,.931-.386l3.894-3.894a22.007,22.007,0,0,0,8.342,1.646A22.383,22.383,0,1,0,37.384,8ZM23.672,52.767H17.634v-1.8L32.434,44Zm13.712-2.633a19.5,19.5,0,0,1-6.32-1.04l8.558-8.558a1.317,1.317,0,0,0-1.483-2.12L24.138,45a19.722,19.722,0,1,1,13.246,5.135Z" transform="translate(1.9 1.9)" fill="#0070bd"/></g></svg>