<svg xmlns="http://www.w3.org/2000/svg" width="23.805" height="20.783" viewBox="0 0 23.805 20.783"><path d="M15.06,28.431a6.128,6.128,0,0,0-4.616-2.04,6.392,6.392,0,0,0-5.124,2.68c-.144.185-.284.379-.417.581-.133-.2-.273-.4-.417-.581a6.392,6.392,0,0,0-5.124-2.68,6.128,6.128,0,0,0-4.616,2.04A7.008,7.008,0,0,0-7,33.142c0,2.023.862,3.957,2.713,6.088A61.721,61.721,0,0,0,2.182,45.2c.65.55,1.322,1.119,2.022,1.719a1.072,1.072,0,0,0,1.4,0c.708-.607,1.406-1.2,2.024-1.72a61.713,61.713,0,0,0,6.469-5.965c1.85-2.131,2.712-4.066,2.712-6.088A7.007,7.007,0,0,0,15.06,28.431Zm-.4,4.711c0,1.5-.675,2.94-2.187,4.682a60.491,60.491,0,0,1-6.236,5.735c-.411.348-.87.736-1.335,1.132-.441-.375-.869-.737-1.335-1.132a60.485,60.485,0,0,1-6.236-5.735c-1.513-1.742-2.187-3.186-2.187-4.682A4.327,4.327,0,0,1-.638,28.536a4.258,4.258,0,0,1,3.407,1.822A7.66,7.66,0,0,1,3.887,32.34a1.073,1.073,0,0,0,2.032,0,7.66,7.66,0,0,1,1.118-1.984,4.257,4.257,0,0,1,3.407-1.822A4.327,4.327,0,0,1,14.661,33.142Z" transform="translate(7 -26.391)" fill="#909090"/></svg>