<svg xmlns="http://www.w3.org/2000/svg" width="49.449" height="66.237" viewBox="0 0 49.449 66.237"><g transform="translate(-577.5 -0.39)"><path d="M618.627,43.727l-10.144-2.759V38.345l.254-.126a14.651,14.651,0,0,0,8.14-13.105V22.979h.457a1.223,1.223,0,0,0,1.222-1.222V16.721a16.331,16.331,0,1,0-32.662,0v5.036a1.223,1.223,0,0,0,1.222,1.222h.457v2.135a14.651,14.651,0,0,0,8.14,13.1l.254.126v2.623l-10.151,2.761a11.383,11.383,0,0,0-8.315,10.9V65.4a1.223,1.223,0,0,0,1.222,1.222h47.005a1.223,1.223,0,0,0,1.222-1.222V54.627A11.384,11.384,0,0,0,618.627,43.727ZM588.338,20.535V16.721a13.887,13.887,0,0,1,27.774,0v3.8l-.52-.073a8.793,8.793,0,0,1-6.665-4.808l-.572-1.145a1.222,1.222,0,0,0-1.954-.317l-2.785,2.782a12.209,12.209,0,0,1-8.6,3.575h-6.677Zm1.679,4.579V22.979h5.008a14.639,14.639,0,0,0,10.318-4.291l1.587-1.587.3.5a11.132,11.132,0,0,0,6.855,5.037l.346.086v2.393a12.208,12.208,0,0,1-24.416,0ZM606.464,42.8l.414.351-4.653,3.876-4.653-3.875.414-.352a1.2,1.2,0,0,0,.425-.905V39.259l.56.13a14.207,14.207,0,0,0,6.508,0l.56-.13V41.9A1.2,1.2,0,0,0,606.464,42.8ZM591.7,44.662l2.917-.792L601,49.2v4h2.444V49.191l6.391-5.325,2.917.792v3.449l-10.529,10.53L591.7,48.106Zm32.81,19.521H579.944V54.627a8.922,8.922,0,0,1,6.518-8.54l2.79-.752v3.282a1.214,1.214,0,0,0,.358.864l11.751,11.751a1.224,1.224,0,0,0,1.728,0L614.84,49.481a1.215,1.215,0,0,0,.358-.864V45.333l2.783.758a8.926,8.926,0,0,1,6.525,8.534Z" transform="translate(0 0)" fill="#0070bd"/><path d="M731.6,206.19h-2.455a3.815,3.815,0,0,1-7.574,0h-2.455a6.259,6.259,0,0,0,12.484,0Z" transform="translate(-123.13 -178.94)" fill="#0070bd"/></g></svg>