<svg xmlns="http://www.w3.org/2000/svg" width="23.471" height="23.577" viewBox="0 0 23.471 23.577"><path d="M284.535,420.4h2.145a1.071,1.071,0,0,0,1.07-1.07V412.9a1.071,1.071,0,0,0-1.07-1.07h-5.362V410.76a3.214,3.214,0,0,0-6.427,0v1.074H269.53a1.071,1.071,0,0,0-1.07,1.07v5.361h-1.074a3.214,3.214,0,0,0-.015,6.423h1.089v5.366a1.071,1.071,0,0,0,1.07,1.07h6.431a1.071,1.071,0,0,0,1.07-1.07V427.91a1.077,1.077,0,0,1,2.154,0v2.144a1.071,1.071,0,0,0,1.07,1.07h6.425a1.071,1.071,0,0,0,1.07-1.07v-6.431a1.071,1.071,0,0,0-1.07-1.07h-2.144a1.074,1.074,0,1,1,0-2.148Zm-3.317.951a3.214,3.214,0,0,0,2.918,3.321v.012l.4,0h1.074v4.3h-4.292V427.91a3.214,3.214,0,1,0-6.427,0v1.074H270.6v-5.361a1.071,1.071,0,0,0-1.07-1.07h-2.14a1.074,1.074,0,0,1,0-2.148h2.144a1.071,1.071,0,0,0,1.07-1.07V413.97h5.361a1.071,1.071,0,0,0,1.07-1.07v-2.14a1.077,1.077,0,0,1,2.154,0V412.9a1.071,1.071,0,0,0,1.07,1.07h5.365v4.291h-1.084l-.108,0A3.2,3.2,0,0,0,281.218,421.356Z" transform="translate(-264.279 -407.547)" fill="#fff"/></svg>