<svg xmlns="http://www.w3.org/2000/svg" width="76.539" height="58.537" viewBox="0 0 76.539 58.537"><g transform="translate(0 -91.691)"><path d="M350.762,324.855H336.887a2.39,2.39,0,0,0-2.387,2.387v12.235a2.39,2.39,0,0,0,2.387,2.387h13.875a2.39,2.39,0,0,0,2.387-2.387V327.242A2.39,2.39,0,0,0,350.762,324.855Zm.145,14.622a.145.145,0,0,1-.145.145H336.887a.145.145,0,0,1-.145-.145V327.242a.145.145,0,0,1,.145-.144h13.875a.145.145,0,0,1,.145.144Z" transform="translate(-284.495 -198.308)" fill="#0070bd"/><path d="M69.008,324.855H55.133a2.39,2.39,0,0,0-2.387,2.387v12.235a2.39,2.39,0,0,0,2.387,2.387H69.008a2.39,2.39,0,0,0,2.387-2.387V327.242A2.39,2.39,0,0,0,69.008,324.855Zm.145,14.622a.145.145,0,0,1-.145.145H55.133a.145.145,0,0,1-.145-.145V327.242a.145.145,0,0,1,.145-.144H69.008a.145.145,0,0,1,.145.144Z" transform="translate(-44.861 -198.308)" fill="#0070bd"/><path d="M215.518,388.543h-.9a1.121,1.121,0,1,0,0,2.242h.9a1.121,1.121,0,1,0,0-2.242Z" transform="translate(-181.584 -252.475)" fill="#0070bd"/><path d="M73.244,98.848a2.175,2.175,0,0,1,2.173-2.172,1.121,1.121,0,0,0,1.121-1.121V92.812a1.121,1.121,0,0,0-1.121-1.121H1.121A1.121,1.121,0,0,0,0,92.812v2.743a1.121,1.121,0,0,0,1.121,1.121,2.175,2.175,0,0,1,2.173,2.172,1.122,1.122,0,0,0,.535.957v7.658H1.813a1.721,1.721,0,0,0-1.72,1.719v6.105a1.721,1.721,0,0,0,1.72,1.719H3.83l-.005,31.5a1.721,1.721,0,0,0,1.719,1.719H71a1.721,1.721,0,0,0,1.719-1.719l.088-31.5h2.018a1.721,1.721,0,0,0,1.72-1.719v-6.105a1.721,1.721,0,0,0-1.72-1.719H72.8V99.741A1.121,1.121,0,0,0,73.244,98.848ZM45.119,147.985H31.42V126.766a.375.375,0,0,1,.374-.374H44.745a.375.375,0,0,1,.374.374Zm25.353,0H47.362V126.766a2.619,2.619,0,0,0-2.616-2.617H31.794a2.62,2.62,0,0,0-2.616,2.617v21.219H6.067l.005-30.979H70.559Zm3.825-38.28v5.059H2.335v-5.059ZM6.072,107.463V99.97H70.559v7.493Zm65.074-9.736H5.393a4.432,4.432,0,0,0-3.15-3.149v-.645H74.3v.645A4.432,4.432,0,0,0,71.146,97.727Z" transform="translate(0 0)" fill="#0070bd"/></g></svg>