<svg xmlns="http://www.w3.org/2000/svg" width="53.751" height="53.829" viewBox="0 0 53.751 53.829"><path d="M42.847,57.638a5.294,5.294,0,0,0-3.84-1.761,5.475,5.475,0,0,0-3.885,1.75L31.532,61.2c-.3-.159-.591-.307-.875-.454-.409-.2-.8-.4-1.125-.6a39.019,39.019,0,0,1-9.35-8.521,23.02,23.02,0,0,1-3.067-4.84c.932-.852,1.8-1.738,2.636-2.59.318-.318.636-.648.954-.966a5.212,5.212,0,0,0,0-7.862l-3.1-3.1c-.352-.352-.716-.716-1.057-1.079-.682-.7-1.4-1.431-2.136-2.113a5.378,5.378,0,0,0-3.806-1.67,5.565,5.565,0,0,0-3.863,1.67l-.023.023L2.857,33A8.312,8.312,0,0,0,.391,38.278a19.916,19.916,0,0,0,1.454,8.43,48.917,48.917,0,0,0,8.691,14.5,53.464,53.464,0,0,0,17.8,13.94,27.738,27.738,0,0,0,10,2.954c.239.011.489.023.716.023A8.561,8.561,0,0,0,45.608,75.3c.011-.023.034-.034.045-.057a25.826,25.826,0,0,1,1.988-2.056c.489-.466.988-.954,1.477-1.466a5.668,5.668,0,0,0,1.716-3.931,5.46,5.46,0,0,0-1.75-3.9ZM46.914,69.6c-.011,0-.011.011,0,0-.443.477-.9.909-1.386,1.386a29.874,29.874,0,0,0-2.193,2.272,5.477,5.477,0,0,1-4.272,1.806c-.17,0-.352,0-.523-.011A24.641,24.641,0,0,1,29.68,72.4,50.466,50.466,0,0,1,12.911,59.262,46.123,46.123,0,0,1,4.731,45.64a16.221,16.221,0,0,1-1.272-7.112,5.215,5.215,0,0,1,1.568-3.374L8.9,31.28a2.583,2.583,0,0,1,1.727-.807,2.43,2.43,0,0,1,1.659.8l.034.034c.693.648,1.352,1.318,2.045,2.034.352.364.716.727,1.079,1.1l3.1,3.1a2.168,2.168,0,0,1,0,3.522c-.329.329-.648.659-.977.977-.954.977-1.863,1.886-2.852,2.772-.023.023-.045.034-.057.057a2.317,2.317,0,0,0-.591,2.579l.034.1a24.9,24.9,0,0,0,3.67,5.987l.011.011a41.7,41.7,0,0,0,10.089,9.18,15.509,15.509,0,0,0,1.4.761c.409.2.8.4,1.125.6.045.023.091.057.136.08a2.463,2.463,0,0,0,1.125.284,2.429,2.429,0,0,0,1.727-.784l3.885-3.885a2.57,2.57,0,0,1,1.716-.852,2.314,2.314,0,0,1,1.636.829l.023.023,6.26,6.26A2.246,2.246,0,0,1,46.914,69.6Z" transform="translate(-0.344 -24.292)" fill="#0d0d0d"/><path d="M246.206,88.968a14.621,14.621,0,0,1,11.906,11.906,1.524,1.524,0,0,0,1.511,1.272,2.028,2.028,0,0,0,.261-.023,1.535,1.535,0,0,0,1.261-1.772A17.68,17.68,0,0,0,246.74,85.946a1.542,1.542,0,0,0-1.772,1.25A1.517,1.517,0,0,0,246.206,88.968Z" transform="translate(-217.155 -76.163)" fill="#0d0d0d"/><path d="M274.279,23.745A29.112,29.112,0,0,0,250.557.024a1.532,1.532,0,1,0-.5,3.022,26,26,0,0,1,21.2,21.2,1.524,1.524,0,0,0,1.511,1.272,2.029,2.029,0,0,0,.261-.023A1.505,1.505,0,0,0,274.279,23.745Z" transform="translate(-220.551 0)" fill="#0d0d0d"/></svg>