<svg xmlns="http://www.w3.org/2000/svg" width="77.778" height="79" viewBox="0 0 77.778 79"><path d="M81.82,33.844a5.659,5.659,0,0,0-3.5-2.412,5.691,5.691,0,0,0-3.8-8.2,5.7,5.7,0,0,0-.295-5.8,5.654,5.654,0,0,0-3.5-2.412,5.7,5.7,0,0,0-8.189-7.4L56.86,11.376a35.44,35.44,0,0,0-9.576-3.241A26.325,26.325,0,0,0,43.63,3.714L41.283,1.44a5.134,5.134,0,0,0-7.854,6.521c.061.093.122.188.181.282a35.733,35.733,0,1,0,35.4,56.87l.026.02a35.637,35.637,0,0,0,7.443-19.944,1.22,1.22,0,0,0-.058-.442c.007-.169.014-.339.019-.508l3.771-2.5a5.7,5.7,0,0,0,1.6-7.9ZM54.475,12.955l-3.753,2.486-.739-1.991a26.278,26.278,0,0,0-1.054-2.442A32.982,32.982,0,0,1,54.475,12.955ZM7.447,43.268A33.285,33.285,0,0,1,34.786,10.519a15.176,15.176,0,0,1,.765,9.191l-3,12.939a3.343,3.343,0,0,0-4.287-.5l-8.484,5.617h0L7.549,45.87C7.482,45.007,7.447,44.137,7.447,43.268ZM47.163,60.682l-7.3,4.831L23.711,41.493a1.23,1.23,0,0,0-.141-.286l-1.4-2.088L29.626,34.2a.894.894,0,0,1,1.238.253L47.416,59.444a.893.893,0,0,1-.253,1.238ZM7.87,48.557l12.246-8.083a1.223,1.223,0,0,0,.141.286l17.562,26.11L27.4,73.766A33.38,33.38,0,0,1,7.87,48.557ZM60.045,70.363a33.343,33.343,0,0,1-29.829,4.488l9.994-6.618h0l8.306-5.5h0a3.351,3.351,0,0,0,.944-4.643l-.11-.166,1.614-1.069a5.472,5.472,0,0,1,3.9-.843,7.92,7.92,0,0,0,5.645-1.22l13.383-8.863a33.39,33.39,0,0,1-.453,3.45,1.221,1.221,0,0,0-.008.395,33.07,33.07,0,0,1-1.223,4.472,1.228,1.228,0,0,0-.178.327A33.188,33.188,0,0,1,60.045,70.363Zm20.2-32.728a3.219,3.219,0,0,1-1.387,2.057l-4.311,2.855,0,0L59.155,52.741a5.468,5.468,0,0,1-3.9.843A7.925,7.925,0,0,0,49.611,54.8L48,55.872,34.441,35.4l3.5-15.137A17.649,17.649,0,0,0,36.653,8.679,1.191,1.191,0,0,0,36.6,8.57,17.352,17.352,0,0,0,35.477,6.6a2.678,2.678,0,0,1,4.1-3.4L41.92,5.479a24,24,0,0,1,5.76,8.827l1.278,3.442.007.018.01.024c.009.021.017.04.027.057a1.2,1.2,0,0,0,.084.152,1.228,1.228,0,0,0,1.7.346l13.1-8.676a3.241,3.241,0,0,1,3.579,5.4l-1.137.753h0l-2.537,1.68-.01.007c-.014.01-.028.02-.04.03a1.228,1.228,0,0,0,1.406,2.012l2.539-1.682a3.241,3.241,0,0,1,3.577,5.406l-3.675,2.434a1.228,1.228,0,1,0,1.356,2.048l.569-.377,1.969-1.3a3.241,3.241,0,0,1,3.579,5.4L73.226,32.7l-.029.019-1.811,1.2a1.228,1.228,0,1,0,1.356,2.049l.569-.377h0l1.968-1.3a3.24,3.24,0,0,1,4.965,3.347Z" transform="translate(-4.99 0)" fill="#0070bd"/></svg>