<svg xmlns="http://www.w3.org/2000/svg" width="66.235" height="66.237" viewBox="0 0 66.235 66.237"><g transform="translate(-0.5 0.001)"><path d="M65.127,7.958a1.293,1.293,0,0,0-1.211.349l-5.363,5.406H55.982l-2.83-2.933V8.173l5.287-5.365A1.294,1.294,0,0,0,57.93.674,12.947,12.947,0,0,0,41.3,16.288L31.77,25.817,15.894,9.9V6.782a1.294,1.294,0,0,0-.628-1.109L6.119.184a1.293,1.293,0,0,0-1.58.195L.88,4.036A1.3,1.3,0,0,0,.686,5.617l5.488,9.147a1.294,1.294,0,0,0,1.109.628H10.4L26.282,31.306,16.789,40.8A12.945,12.945,0,0,0,1.175,57.429a1.294,1.294,0,0,0,2.144.5l5.363-5.405h2.585l2.946,2.946v2.585L8.807,63.416a1.294,1.294,0,0,0,.5,2.144,12.94,12.94,0,0,0,14.631-4.713,12.792,12.792,0,0,0,2-10.9l7.624-7.624,1.746,1.9-.8.8a1.294,1.294,0,1,0,1.83,1.83l.726-.726,16.386,17.8.037.038A7.763,7.763,0,0,0,64.462,52.983l-.04-.038L46.595,36.59l.718-.718a1.294,1.294,0,0,0-1.83-1.829l-.8.8-1.9-1.745,7.661-7.661A12.944,12.944,0,0,0,66.06,8.8,1.292,1.292,0,0,0,65.127,7.958ZM11.857,13.186a1.28,1.28,0,0,0-.915-.367H8.016L3.424,5.152l2.23-2.23,7.653,4.593v2.926a1.293,1.293,0,0,0,.378.914L29.941,27.647l-1.83,1.829ZM44.763,38.421l17.888,16.41a5.175,5.175,0,0,1-7.32,7.318L38.891,44.292ZM42.855,36.67l-5.718,5.717-1.746-1.9,5.564-5.564ZM53.8,23.285a10.337,10.337,0,0,1-3.306-.539,1.3,1.3,0,0,0-1.328.311L23.558,48.664a1.293,1.293,0,0,0-.311,1.328,10.36,10.36,0,0,1-9.81,13.655,10.617,10.617,0,0,1-1.128-.061l4.109-4.077a1.293,1.293,0,0,0,.383-.918v-3.66a1.294,1.294,0,0,0-.379-.915l-3.7-3.7a1.294,1.294,0,0,0-.915-.379H8.143a1.3,1.3,0,0,0-.919.383L3.148,54.426A10.449,10.449,0,0,1,3.087,53.3a10.36,10.36,0,0,1,13.656-9.81,1.293,1.293,0,0,0,1.327-.311L43.677,17.57a1.293,1.293,0,0,0,.311-1.327A10.359,10.359,0,0,1,53.8,2.587a10.577,10.577,0,0,1,1.162.064L50.936,6.734a1.294,1.294,0,0,0-.372.908V11.3a1.292,1.292,0,0,0,.363.9L54.5,15.9a1.292,1.292,0,0,0,.931.4h3.66a1.293,1.293,0,0,0,.918-.383l4.077-4.108a10.482,10.482,0,0,1,.061,1.128A10.361,10.361,0,0,1,53.8,23.285Z" transform="translate(0 0)" fill="#0070bd"/><path d="M200.492,183.8,184.3,199.993a1.294,1.294,0,1,0,1.83,1.829l16.189-16.189a1.294,1.294,0,0,0-1.83-1.829Z" transform="translate(-159.695 -159.697)" fill="#0070bd"/><path d="M357.321,358.905a1.294,1.294,0,0,0,1.827-1.832l-11.661-11.624a1.294,1.294,0,0,0-1.827,1.832Z" transform="translate(-300.176 -300.431)" fill="#0070bd"/></g></svg>